<?xml version="1.0" encoding="UTF-8" standalone="no"?>
<!-- Created with Inkscape (http://www.inkscape.org/) -->

<svg
   xmlns:dc="http://purl.org/dc/elements/1.1/"
   xmlns:cc="http://creativecommons.org/ns#"
   xmlns:rdf="http://www.w3.org/1999/02/22-rdf-syntax-ns#"
   xmlns:svg="http://www.w3.org/2000/svg"
   xmlns="http://www.w3.org/2000/svg"
   xmlns:sodipodi="http://sodipodi.sourceforge.net/DTD/sodipodi-0.dtd"
   xmlns:inkscape="http://www.inkscape.org/namespaces/inkscape"
   width="141.70088"
   height="37.664761"
   id="svg2"
   version="1.1"
   inkscape:version="0.48.5 r10040"
   sodipodi:docname="logosvg.svg"
   inkscape:export-filename="/Users/gaborcsardi/works/argufy/inst/logo.png"
   inkscape:export-xdpi="254.06"
   inkscape:export-ydpi="254.06">
  <defs
     id="defs4" />
  <sodipodi:namedview
     id="base"
     pagecolor="#ffffff"
     bordercolor="#666666"
     borderopacity="1.0"
     inkscape:pageopacity="0.0"
     inkscape:pageshadow="2"
     inkscape:zoom="6.5137209"
     inkscape:cx="70.850441"
     inkscape:cy="18.832381"
     inkscape:document-units="px"
     inkscape:current-layer="layer1"
     showgrid="false"
     inkscape:window-width="1406"
     inkscape:window-height="946"
     inkscape:window-x="4"
     inkscape:window-y="0"
     inkscape:window-maximized="0"
     fit-margin-top="0"
     fit-margin-left="0"
     fit-margin-right="0"
     fit-margin-bottom="0" />
  <metadata
     id="metadata7">
    <rdf:RDF>
      <cc:Work
         rdf:about="">
        <dc:format>image/svg+xml</dc:format>
        <dc:type
           rdf:resource="http://purl.org/dc/dcmitype/StillImage" />
        <dc:title></dc:title>
      </cc:Work>
    </rdf:RDF>
  </metadata>
  <g
     inkscape:label="Layer 1"
     inkscape:groupmode="layer"
     id="layer1"
     transform="translate(-444.5184,-164.57816)">
    <g
       style="font-size:36px;font-style:normal;font-variant:normal;font-weight:bold;font-stretch:normal;text-align:start;line-height:125%;letter-spacing:0px;word-spacing:0px;writing-mode:lr-tb;text-anchor:start;fill:#000000;fill-opacity:1;stroke:none;font-family:Consolas;-inkscape-font-specification:Consolas Bold"
       transform="translate(1.7514954,-0.46056632)"
       id="g3792">
      <path
         d="m 479.6928,193.58591 -0.0703,-2.37304 c -0.96095,0.94922 -1.93947,1.63476 -2.93555,2.05664 -0.98438,0.42187 -2.02149,0.63281 -3.11133,0.63281 -1.00782,0 -1.86914,-0.12891 -2.58398,-0.38672 -0.71485,-0.25781 -1.30665,-0.60937 -1.77539,-1.05469 -0.45704,-0.45703 -0.79688,-0.99023 -1.01953,-1.59961 -0.21094,-0.60937 -0.31641,-1.27148 -0.31641,-1.98632 0,-1.76953 0.65625,-3.15234 1.96875,-4.14844 1.32421,-1.00781 3.27538,-1.51171 5.85352,-1.51172 l 3.65625,0 0,-1.54688 c -2e-5,-1.04295 -0.334,-1.87498 -1.00196,-2.49609 -0.66798,-0.6328 -1.68751,-0.9492 -3.05859,-0.94922 -0.9961,2e-5 -1.98048,0.11134 -2.95313,0.33399 -0.96094,0.22267 -1.95703,0.53907 -2.98828,0.94921 l 0,-2.75976 c 0.38672,-0.14061 0.81445,-0.27537 1.28321,-0.4043 0.48046,-0.14061 0.98436,-0.26365 1.51171,-0.36914 0.52734,-0.10545 1.07812,-0.18748 1.65235,-0.24609 0.57421,-0.0703 1.15429,-0.10545 1.74023,-0.10547 1.0664,2e-5 2.02733,0.1172 2.88282,0.35156 0.85545,0.23439 1.57615,0.59182 2.1621,1.07227 0.59765,0.48048 1.05468,1.084 1.3711,1.81054 0.31639,0.72658 0.47459,1.58205 0.47461,2.56641 l 0,12.16406 -2.74219,0 m -0.33398,-8.0332 -3.88477,0 c -0.76173,1e-5 -1.41798,0.0762 -1.96875,0.22852 -0.55079,0.15235 -1.00196,0.36914 -1.35352,0.65039 -0.35156,0.28125 -0.61524,0.6211 -0.79101,1.01953 -0.16407,0.38672 -0.2461,0.82617 -0.24609,1.31836 -10e-6,0.33984 0.0527,0.66797 0.1582,0.98437 0.10546,0.30469 0.27538,0.58008 0.50976,0.82617 0.23437,0.23438 0.53906,0.42188 0.91407,0.5625 0.37499,0.14063 0.83202,0.21094 1.37109,0.21094 0.70312,0 1.50585,-0.21093 2.4082,-0.63281 0.91405,-0.43359 1.87499,-1.11328 2.88282,-2.03906 l 0,-3.12891"
         id="path2992"
         inkscape:connector-curvature="0" />
      <path
         d="m 483.79956,175.93748 2.79492,0 0.0879,3.25195 c 1.04296,-1.25389 2.06835,-2.16209 3.07617,-2.72461 1.01952,-0.56248 2.04491,-0.84373 3.07617,-0.84375 1.82811,2e-5 3.21093,0.59181 4.14844,1.77539 0.9492,1.18361 1.38866,2.94142 1.31836,5.27344 l -3.09375,0 c 0.0351,-1.54687 -0.19337,-2.66601 -0.68555,-3.35742 -0.48048,-0.70311 -1.18946,-1.05468 -2.12695,-1.05469 -0.41017,1e-5 -0.82618,0.0762 -1.24805,0.22851 -0.41016,0.14064 -0.8379,0.37502 -1.2832,0.70313 -0.4336,0.31642 -0.89649,0.72657 -1.38867,1.23047 -0.4922,0.50392 -1.01954,1.11329 -1.58203,1.82812 l 0,11.33789 -3.09375,0 0,-17.64843"
         id="path2994"
         inkscape:connector-curvature="0" />
      <path
         d="m 511.85374,178.43357 c 0.32811,0.41017 0.58007,0.89064 0.75586,1.44141 0.18749,0.53907 0.28124,1.12501 0.28125,1.75781 -10e-6,0.91407 -0.16994,1.75196 -0.50976,2.51367 -0.32814,0.75001 -0.79689,1.39454 -1.40625,1.93359 -0.60939,0.53907 -1.34181,0.96095 -2.19727,1.26563 -0.84376,0.29297 -1.7754,0.43946 -2.79492,0.43945 -0.73829,1e-5 -1.4297,-0.0762 -2.07422,-0.22851 -0.64454,-0.16406 -1.1543,-0.36328 -1.5293,-0.59766 -0.22266,0.32813 -0.41016,0.63868 -0.5625,0.93164 -0.15234,0.29297 -0.22852,0.6211 -0.22851,0.98438 -1e-5,0.44531 0.21093,0.81445 0.63281,1.10742 0.43359,0.29297 1.00195,0.45117 1.70508,0.47461 l 4.64062,0.17578 c 0.8789,0.0234 1.68749,0.13477 2.42579,0.33398 0.74998,0.19922 1.38865,0.48633 1.91601,0.86133 0.53905,0.375 0.95506,0.83789 1.24805,1.38867 0.30467,0.55078 0.45701,1.18945 0.45703,1.91602 -2e-5,0.78515 -0.16994,1.52929 -0.50977,2.23242 -0.33986,0.70312 -0.8672,1.31835 -1.58203,1.8457 -0.70314,0.53906 -1.59962,0.96679 -2.68945,1.28321 -1.08986,0.31639 -2.38478,0.4746 -3.88477,0.47461 -1.42969,-1e-5 -2.64844,-0.1172 -3.65625,-0.35157 -0.99609,-0.22266 -1.81641,-0.53907 -2.46093,-0.94922 -0.64454,-0.39844 -1.11329,-0.87891 -1.40625,-1.4414 -0.29297,-0.55079 -0.43946,-1.16016 -0.43946,-1.82813 0,-0.85547 0.19922,-1.60547 0.59766,-2.25 0.39843,-0.64453 1.01367,-1.26562 1.8457,-1.86328 -0.30469,-0.14062 -0.56836,-0.3164 -0.79101,-0.52734 -0.22266,-0.21094 -0.4043,-0.43945 -0.54492,-0.68555 -0.14063,-0.25781 -0.2461,-0.52734 -0.31641,-0.80859 -0.0703,-0.28125 -0.10547,-0.55664 -0.10547,-0.82617 0,-0.76172 0.17578,-1.45898 0.52734,-2.0918 0.36328,-0.63281 0.79102,-1.23046 1.28321,-1.79297 -0.22266,-0.26952 -0.42188,-0.5332 -0.59766,-0.79102 -0.16407,-0.2578 -0.31055,-0.53319 -0.43945,-0.82617 -0.11719,-0.30468 -0.21094,-0.62694 -0.28125,-0.96679 -0.0586,-0.35156 -0.0879,-0.74999 -0.0879,-1.19532 -10e-6,-0.91405 0.16406,-1.74608 0.49218,-2.49609 0.33984,-0.7617 0.80859,-1.41209 1.40625,-1.95117 0.60937,-0.53905 1.33594,-0.95506 2.17969,-1.24805 0.85546,-0.30467 1.79882,-0.45701 2.83008,-0.45703 0.43358,2e-5 0.8496,0.0293 1.24805,0.0879 0.39842,0.0586 0.74999,0.13478 1.05468,0.22852 l 6.39844,0 0,2.49609 -2.83008,0 m -10.61718,17.70117 c -1e-5,0.83203 0.43358,1.43554 1.30078,1.81055 0.86718,0.38671 2.07421,0.58007 3.62109,0.58008 0.97265,-1e-5 1.7871,-0.0879 2.44336,-0.26368 0.66796,-0.17578 1.20116,-0.41016 1.59961,-0.70312 0.41014,-0.28125 0.70311,-0.60938 0.87891,-0.98438 0.17576,-0.36328 0.26365,-0.73828 0.26367,-1.125 -2e-5,-0.71484 -0.29299,-1.24218 -0.87891,-1.58203 -0.58595,-0.33984 -1.48243,-0.53906 -2.68945,-0.59765 l -4.60547,-0.15821 c -0.38673,0.25782 -0.70899,0.50977 -0.9668,0.75586 -0.2461,0.2461 -0.43946,0.49219 -0.58007,0.73828 -0.14064,0.25782 -0.24024,0.50977 -0.29883,0.75586 -0.0586,0.25781 -0.0879,0.51563 -0.0879,0.77344 m 0.93164,-14.43164 c -1e-5,0.56251 0.0937,1.07814 0.28125,1.54688 0.18749,0.46875 0.45116,0.86719 0.79101,1.19531 0.33984,0.32813 0.73828,0.58594 1.19532,0.77344 0.46874,0.17578 0.98436,0.26368 1.54687,0.26367 0.60936,1e-5 1.14843,-0.0996 1.61719,-0.29883 0.48045,-0.21093 0.87889,-0.49218 1.19531,-0.84375 0.32811,-0.35155 0.57421,-0.75585 0.73828,-1.21289 0.17577,-0.45702 0.26366,-0.93163 0.26367,-1.42383 -10e-6,-0.56249 -0.0938,-1.07811 -0.28125,-1.54687 -0.18751,-0.46874 -0.45118,-0.86718 -0.79101,-1.19532 -0.33986,-0.32811 -0.74415,-0.58006 -1.21289,-0.75586 -0.45705,-0.18748 -0.96681,-0.28123 -1.5293,-0.28125 -0.60938,2e-5 -1.15431,0.10549 -1.63477,0.31641 -0.46875,0.21095 -0.86719,0.4922 -1.19531,0.84375 -0.31641,0.33986 -0.5625,0.73829 -0.73828,1.19531 -0.16407,0.45705 -0.2461,0.93165 -0.24609,1.42383"
         id="path2996"
         inkscape:connector-curvature="0" />
      <path
         d="m 530.23393,193.58591 -2.74219,0 -0.10546,-2.84765 c -0.52736,0.60937 -1.03127,1.11914 -1.51172,1.52929 -0.46877,0.39844 -0.93752,0.72071 -1.40625,0.9668 -0.46876,0.24609 -0.94337,0.41602 -1.42383,0.50977 -0.46876,0.10546 -0.96681,0.1582 -1.49414,0.1582 -1.81642,0 -3.18751,-0.5332 -4.11328,-1.59961 -0.92579,-1.0664 -1.38868,-2.67773 -1.38868,-4.83398 l 0,-11.53125 3.0586,0 0,11.28515 c -10e-6,2.70704 1.01952,4.06055 3.05859,4.06055 0.37499,0 0.73827,-0.0527 1.08985,-0.1582 0.36327,-0.11719 0.73827,-0.31055 1.125,-0.58008 0.39842,-0.28125 0.8203,-0.65625 1.26562,-1.125 0.45702,-0.46875 0.96678,-1.06054 1.5293,-1.77539 l 0,-11.70703 3.05859,0 0,17.64843"
         id="path2998"
         inkscape:connector-curvature="0" />
      <path
         d="m 540.50484,171.08297 c -2.37397,3e-5 -2.11729,3.90072 -2.11729,4.32716 l 0,3.09375 5.73438,0 0,2.54883 -5.73438,0 0,12.5332 -3.11133,0 0,-12.5332 -3.67773,0 0,-2.54883 3.67773,0 0,-2.91797 c 0,-4.69919 0.44921,-6.83786 5.34766,-6.83789 1.21873,3e-5 1.96932,0 3.50018,0 l -0.0136,2.33495"
         id="path3000"
         inkscape:connector-curvature="0"
         sodipodi:nodetypes="csccccccccccsccc" />
      <path
         d="m 559.35476,175.93748 -4.01172,15.78515 c -0.6211,1.60547 -1.26563,2.98828 -1.93359,4.14844 -0.65626,1.16015 -1.37696,2.10937 -2.16211,2.84766 -0.78517,0.74999 -1.64649,1.30077 -2.58399,1.65234 -0.9375,0.35155 -1.98633,0.52734 -3.14648,0.52734 -0.30469,0 -0.58008,-0.006 -0.82617,-0.0176 -0.2461,-0.0117 -0.51563,-0.0293 -0.8086,-0.0527 l 0,-2.77734 c 0.25782,0.0351 0.53906,0.0644 0.84375,0.0879 0.30469,0.0352 0.62695,0.0527 0.9668,0.0527 0.5625,0 1.08398,-0.082 1.56445,-0.24609 0.49219,-0.16407 0.95508,-0.4336 1.38868,-0.8086 0.43358,-0.36328 0.8496,-0.83789 1.24804,-1.42382 0.39843,-0.58594 0.78515,-1.29493 1.16016,-2.12696 l -7.04883,-17.64843 3.48047,0 4.46484,11.67187 0.89649,2.74219 1.01953,-2.8125 2.13086,-11.60156 3.35742,0"
         id="path3002"
         inkscape:connector-curvature="0"
         sodipodi:nodetypes="cccccsccccsccccccccccc" />
    </g>
    <g
       style="font-size:36px;font-style:normal;font-variant:normal;font-weight:bold;font-stretch:normal;text-align:start;line-height:125%;letter-spacing:0px;word-spacing:0px;writing-mode:lr-tb;text-anchor:start;fill:#000000;fill-opacity:1;stroke:none;font-family:Consolas;-inkscape-font-specification:Consolas Bold"
       transform="matrix(1,0,0,1.1285349,-3.9999864,-22.081201)"
       id="g3784">
      <rect
         style="fill:#000000;fill-opacity:1;stroke:#b4ac9f;stroke-width:0.1201625;stroke-miterlimit:4;stroke-opacity:1;stroke-dasharray:none;stroke-dashoffset:0"
         id="rect3776"
         width="16.730469"
         height="33.261806"
         x="448.58221"
         y="165.45628"
         ry="7.8021522" />
      <path
         d="m 463.21362,177.32898 c -2e-5,1.89845 -0.52736,3.33986 -1.58204,4.32422 -1.0547,0.97267 -2.58399,1.52345 -4.58789,1.65234 l -0.14062,4.32422 -2.61914,0 -0.22852,-6.73242 2.05664,0 c 0.71484,10e-6 1.31249,-0.0762 1.79297,-0.22852 0.48046,-0.15233 0.86718,-0.36912 1.16016,-0.65039 0.29295,-0.28123 0.50389,-0.62108 0.63281,-1.01953 0.12889,-0.41014 0.19335,-0.86717 0.19336,-1.37109 -10e-6,-0.85545 -0.17579,-1.61717 -0.52734,-2.28516 -0.35158,-0.66795 -0.84377,-1.23045 -1.47657,-1.6875 -0.63282,-0.45701 -1.38868,-0.80271 -2.26757,-1.03711 -0.8672,-0.23435 -1.81642,-0.35154 -2.84766,-0.35156 l -0.43945,0 0,-2.74219 0.47461,0 c 1.18358,3e-5 2.26171,0.11135 3.23437,0.33399 0.98437,0.22268 1.85741,0.52736 2.61914,0.91406 0.77343,0.37502 1.44139,0.82033 2.00391,1.33594 0.5742,0.51564 1.04881,1.06056 1.42383,1.63476 0.3867,0.57424 0.66795,1.1719 0.84375,1.79297 0.18748,0.60939 0.28123,1.20705 0.28125,1.79297 m -7.64649,12.70898 c 0.32812,1e-5 0.6328,0.0645 0.91406,0.19336 0.28124,0.11719 0.52148,0.28126 0.72071,0.49219 0.21092,0.21094 0.37499,0.46289 0.49218,0.75586 0.11718,0.28125 0.17577,0.58008 0.17579,0.89648 -2e-5,0.31641 -0.0586,0.61524 -0.17579,0.89649 -0.11719,0.28125 -0.28126,0.52734 -0.49218,0.73828 -0.19923,0.19922 -0.43947,0.35742 -0.72071,0.47461 -0.28126,0.12891 -0.58594,0.19336 -0.91406,0.19336 -0.31641,0 -0.61524,-0.0645 -0.89648,-0.19336 -0.28126,-0.11719 -0.52735,-0.27539 -0.73828,-0.47461 -0.21095,-0.21094 -0.37501,-0.45703 -0.49219,-0.73828 -0.1172,-0.28125 -0.17579,-0.58008 -0.17578,-0.89649 -1e-5,-0.3164 0.0586,-0.61523 0.17578,-0.89648 0.11718,-0.29297 0.28124,-0.54492 0.49219,-0.75586 0.21093,-0.21093 0.45702,-0.375 0.73828,-0.49219 0.28124,-0.1289 0.58007,-0.19335 0.89648,-0.19336"
         id="path2990"
         inkscape:connector-curvature="0"
         style="fill:#ffffff;fill-opacity:1" />
    </g>
    <g
       style="font-size:36px;font-style:normal;font-variant:normal;font-weight:bold;font-stretch:normal;text-align:start;line-height:125%;letter-spacing:0px;word-spacing:0px;writing-mode:lr-tb;text-anchor:start;fill:#000000;fill-opacity:1;stroke:none;font-family:Consolas;-inkscape-font-specification:Consolas Bold"
       transform="matrix(1,0,0,1.1224134,-7.1793248e-6,-21.0142)"
       id="g3780">
      <rect
         ry="7.8021522"
         y="165.45628"
         x="569.42517"
         height="33.261806"
         width="16.730469"
         id="rect3778"
         style="fill:#000000;fill-opacity:1;stroke:#b4ac9f;stroke-width:0.1201625;stroke-miterlimit:4;stroke-opacity:1;stroke-dasharray:none;stroke-dashoffset:0" />
      <path
         id="path3004"
         d="m 571.85629,177.32898 c 2e-5,1.89845 0.52736,3.33986 1.58204,4.32422 1.0547,0.97267 2.58399,1.52345 4.58789,1.65234 l 0.14062,4.32422 2.61914,0 0.22852,-6.73242 -2.05664,0 c -0.71484,10e-6 -1.31249,-0.0762 -1.79297,-0.22852 -0.48046,-0.15233 -0.86718,-0.36912 -1.16016,-0.65039 -0.29295,-0.28123 -0.50389,-0.62108 -0.63281,-1.01953 -0.12889,-0.41014 -0.19335,-0.86717 -0.19336,-1.37109 1e-5,-0.85545 0.17579,-1.61717 0.52734,-2.28516 0.35158,-0.66795 0.84377,-1.23045 1.47657,-1.6875 0.63282,-0.45701 1.38868,-0.80271 2.26757,-1.03711 0.8672,-0.23435 1.81642,-0.35154 2.84766,-0.35156 l 0.43945,0 0,-2.74219 -0.47461,0 c -1.18358,3e-5 -2.26171,0.11135 -3.23437,0.33399 -0.98437,0.22268 -1.85741,0.52736 -2.61914,0.91406 -0.77343,0.37502 -1.44139,0.82033 -2.00391,1.33594 -0.5742,0.51564 -1.04881,1.06056 -1.42383,1.63476 -0.3867,0.57424 -0.66795,1.1719 -0.84375,1.79297 -0.18748,0.60939 -0.28123,1.20705 -0.28125,1.79297 m 7.64649,12.70898 c -0.32812,1e-5 -0.6328,0.0645 -0.91406,0.19336 -0.28124,0.11719 -0.52148,0.28126 -0.72071,0.49219 -0.21092,0.21094 -0.37499,0.46289 -0.49218,0.75586 -0.11718,0.28125 -0.17577,0.58008 -0.17579,0.89648 2e-5,0.31641 0.0586,0.61524 0.17579,0.89649 0.11719,0.28125 0.28126,0.52734 0.49218,0.73828 0.19923,0.19922 0.43947,0.35742 0.72071,0.47461 0.28126,0.12891 0.58594,0.19336 0.91406,0.19336 0.31641,0 0.61524,-0.0645 0.89648,-0.19336 0.28126,-0.11719 0.52735,-0.27539 0.73828,-0.47461 0.21095,-0.21094 0.37501,-0.45703 0.49219,-0.73828 0.1172,-0.28125 0.17579,-0.58008 0.17578,-0.89649 10e-6,-0.3164 -0.0586,-0.61523 -0.17578,-0.89648 -0.11718,-0.29297 -0.28124,-0.54492 -0.49219,-0.75586 -0.21093,-0.21093 -0.45702,-0.375 -0.73828,-0.49219 -0.28124,-0.1289 -0.58007,-0.19335 -0.89648,-0.19336"
         inkscape:connector-curvature="0"
         style="fill:#ffffff;fill-opacity:1" />
    </g>
    <path
       sodipodi:nodetypes="cc"
       inkscape:connector-curvature="0"
       id="path3788"
       d="m 453.47106,164.78619 124.66226,0"
       style="font-size:36px;font-style:normal;font-variant:normal;font-weight:bold;font-stretch:normal;text-align:start;line-height:125%;letter-spacing:0px;word-spacing:0px;writing-mode:lr-tb;text-anchor:start;fill:none;stroke:#000000;stroke-width:0.1;stroke-linecap:butt;stroke-linejoin:miter;stroke-miterlimit:4;stroke-opacity:1;stroke-dasharray:none;font-family:Consolas;-inkscape-font-specification:Consolas Bold" />
    <path
       sodipodi:nodetypes="cc"
       style="font-size:36px;font-style:normal;font-variant:normal;font-weight:bold;font-stretch:normal;text-align:start;line-height:125%;letter-spacing:0px;word-spacing:0px;writing-mode:lr-tb;text-anchor:start;fill:none;stroke:#000000;stroke-width:0.1;stroke-linecap:butt;stroke-linejoin:miter;stroke-miterlimit:4;stroke-opacity:1;stroke-dasharray:none;font-family:Consolas;-inkscape-font-specification:Consolas Bold"
       d="m 453.43268,201.98804 124.66226,0"
       id="path3790"
       inkscape:connector-curvature="0" />
  </g>
</svg>
